<?xml version="1.0" encoding="UTF-8"?>
<!DOCTYPE svg PUBLIC "-//W3C//DTD SVG 1.1//EN" "http://www.w3.org/Graphics/SVG/1.1/DTD/svg11.dtd">
<!-- Creator: CorelDRAW X7 -->
<svg xmlns="http://www.w3.org/2000/svg" xml:space="preserve" width="7.45437in" height="1.30037in" version="1.1" style="shape-rendering:geometricPrecision; text-rendering:geometricPrecision; image-rendering:optimizeQuality; fill-rule:evenodd; clip-rule:evenodd"
viewBox="0 0 7219 1259"
 xmlns:xlink="http://www.w3.org/1999/xlink">
 <defs>
  <style type="text/css">
   <![CDATA[
    .fil1 {fill:#5E5E5E}
    .fil2 {fill:#6E6E6E}
    .fil0 {fill:#A4CE46}
    .fil3 {fill:#A7A7A7}
   ]]>
  </style>
 </defs>
 <g id="Layer_x0020_1">
  <metadata id="CorelCorpID_0Corel-Layer"/>
  <g id="_273022360">
   <path class="fil0" d="M1967 922l131 0c0,-68 17,-148 19,-219 1,-72 18,-148 18,-219l113 438 144 0c12,-25 20,-76 29,-109 10,-40 18,-73 27,-110l46 -192c0,-1 4,-14 5,-14l42 381c3,54 -17,44 132,44 0,-172 -56,-520 -56,-682l-188 0c-2,33 -18,77 -25,112l-85 330 -109 -442 -187 0 -56 682z"/>
   <path class="fil1" d="M1541 659c1,-1 3,-5 3,-4l22 -40c60,-135 36,-270 -110,-340 -74,-35 -162,-41 -244,-8 -64,26 -131,81 -146,148l-120 -18c-56,-6 -211,1 -268,6 -41,3 -82,17 -119,18 -23,-101 -203,-224 -396,-139 -60,26 -116,89 -132,161 -17,77 23,208 59,235 -5,-58 -48,-166 48,-259 69,-65 168,-66 217,19 67,116 35,300 -104,320 -54,7 -98,-21 -136,-30 27,40 238,171 365,-124 5,-11 8,-20 12,-31l17 -33c0,34 5,83 -6,106 38,-10 149,-129 306,-131 142,-3 229,69 313,125 -3,-35 -6,-62 -6,-106 16,12 20,36 29,58 9,20 19,40 30,58 46,77 115,145 220,125 42,-7 97,-33 115,-60 -50,12 -153,79 -232,-31 -74,-103 -51,-316 88,-320 92,-2 157,66 178,149 15,60 -2,89 -3,146z"/>
   <path class="fil0" d="M3299 922l131 0 0 -426 237 377c38,61 21,49 145,49 14,0 18,-5 18,-19l0 -663 -137 0 0 419c-17,-12 -52,-78 -68,-101 -24,-37 -41,-72 -66,-109 -13,-20 -21,-35 -33,-55l-67 -108c-34,-59 -17,-46 -160,-46l0 682z"/>
   <path class="fil1" d="M5663 546l-144 0 0 -187c148,0 219,-27 219,87 0,18 -7,66 -12,76 -9,16 -38,24 -63,24zm-275 376l131 0 0 -269c26,0 36,2 52,4l34 3c41,9 29,20 50,64l83 198 150 0 -125 -269c41,-20 54,-17 79,-59 43,-72 65,-354 -135,-354l-319 0 0 682z"/>
   <path class="fil0" d="M2842 596c0,-43 6,-116 13,-155 17,-95 86,-82 162,-82 128,0 107,170 107,275 0,61 -11,138 -68,157 -58,20 -162,21 -191,-42 -14,-29 -23,-112 -23,-153zm-131 -43c0,182 13,369 238,369 104,0 206,3 262,-88 66,-109 71,-401 -1,-512 -57,-89 -146,-88 -249,-88 -200,0 -250,138 -250,319z"/>
   <path class="fil1" d="M6032 590c0,-50 4,-112 14,-155 20,-87 80,-76 161,-76 125,0 107,172 107,269 0,110 -25,175 -138,175 -134,0 -144,-69 -144,-213zm-131 -44c0,65 -3,134 12,194 42,173 131,182 288,182 219,0 250,-152 250,-357 0,-91 -16,-171 -48,-234 -51,-103 -165,-97 -265,-97 -188,0 -237,145 -237,312z"/>
   <path class="fil1" d="M6470 503c0,145 -23,425 206,425 91,0 112,-23 163,-50 36,53 20,44 125,44l0 -388c-122,0 -112,-8 -225,19l0 87 94 0c0,104 19,135 -77,155 -35,7 -71,8 -101,-8 -55,-30 -54,-140 -54,-216 0,-219 47,-235 245,-213 19,2 36,0 55,2 19,2 22,5 51,5l0 -106c-58,-5 -86,-25 -188,-25 -97,0 -190,-14 -248,83 -26,44 -46,119 -46,186z"/>
   <path class="fil0" d="M3874 377l0 407c0,100 73,145 162,137l289 -18 0 -106 -232 0c-101,0 -87,-26 -87,-151l206 -6c34,0 42,-6 69,-6l0 -106 -138 -7c-54,1 -83,-6 -137,-6 0,-44 -11,-150 31,-150l288 0 0 -113 -106 -7c-65,-7 -150,-5 -220,-5 -72,0 -125,53 -125,137z"/>
   <path class="fil1" d="M21 771c-31,37 -43,154 73,222 78,44 168,54 260,77 43,12 86,24 124,39 20,8 38,15 55,26 75,50 205,118 308,119 142,0 267,-121 341,-159 170,-86 477,-85 459,-298 -2,-24 -9,-45 -25,-63 0,67 0,73 -36,108 -29,29 -50,41 -92,57 -144,58 -326,76 -442,146 -85,52 -95,80 -206,89 -28,2 -100,-12 -122,-21l-96 -54c-212,-105 -425,-76 -558,-180 -32,-25 -43,-52 -43,-108z"/>
   <path class="fil1" d="M4913 377l0 538 137 0 0 -269c44,0 79,-6 131,-6l138 -6 0 -106 -131 -7c-56,0 -85,-6 -138,-6 0,-77 -14,-150 25,-150l288 0 0 -113 -106 -7c-65,-7 -149,-5 -219,-5 -74,0 -125,62 -125,137z"/>
   <path class="fil0" d="M4537 721l0 201 132 0c0,-252 -20,-162 54,-321l171 -361 -144 0 -105 233c-11,26 -26,51 -33,80l-12 0c-9,-37 -70,-179 -92,-234 -11,-27 -21,-56 -33,-79l-144 0 52 117c25,59 154,344 154,364z"/>
   <path class="fil1" d="M4669 1234l-38 0 0 -43c52,0 56,-5 56,25 0,14 -4,18 -18,18zm15 25l-84 0 0 -169c63,0 159,0 100,88 10,7 19,15 19,31 0,35 -12,47 -35,50zm-15 -100l-38 0 0 -37 38 0c14,0 18,4 18,19 0,14 -4,18 -18,18z"/>
   <path class="fil1" d="M5232 1109l0 150 31 0 0 -100c47,35 33,100 100,100l0 -150c0,-17 -5,-15 -19,-19 -22,17 -12,45 -12,107 -18,-13 -34,-45 -47,-66 -5,-9 -17,-29 -24,-34 -14,-9 -29,-12 -29,12z"/>
   <path class="fil1" d="M6207 1109l0 150 32 0 0 -100c47,35 33,100 100,100l0 -150c0,-17 -5,-15 -19,-19 -22,17 -13,45 -13,107 -17,-13 -33,-45 -46,-66 -5,-9 -18,-29 -24,-34 -14,-9 -30,-12 -30,12z"/>
   <path class="fil1" d="M5626 1234l-38 0 0 -112c44,0 69,-8 69,56 0,25 -7,56 -31,56zm12 25l-81 0 0 -150c0,-14 4,-19 19,-19 60,0 112,1 112,82 0,64 -18,83 -50,87z"/>
   <path class="fil1" d="M3493 1234c-26,0 -52,1 -49,-55 3,-58 15,-57 49,-57 42,0 39,112 0,112zm18 25l-29 0c-63,0 -64,-9 -64,-112 0,-39 29,-57 68,-57 93,0 73,169 25,169z"/>
   <path class="fil1" d="M4337 1141c5,6 1,-2 7,12l12 44 -38 0c7,-15 15,-39 19,-56zm-69 118c46,0 27,-2 44,-37l56 0 8 37 36 0 -57 -168 -30 -1c-8,17 -55,153 -57,169z"/>
   <path class="fil1" d="M4906 1109c0,133 3,149 54,150l40 0c51,0 38,-126 38,-169l-32 0c0,127 13,144 -43,144 -38,0 -25,-87 -25,-144 -21,1 -32,-2 -32,19z"/>
   <path class="fil1" d="M2623 1141c4,17 12,41 19,56l-37 0 12 -44c5,-13 2,-6 6,-12zm-75 118l31 0c6,-12 9,-22 13,-37l56 0c4,15 7,25 13,37l31 0c-7,-30 -19,-59 -29,-90 -15,-44 -17,-79 -40,-79 -27,0 -35,54 -43,76 -10,32 -25,63 -32,93z"/>
   <path class="fil1" d="M5945 1141c4,6 0,-2 6,12 5,10 3,4 6,13 4,13 5,14 6,31l-37 0c7,-15 14,-39 19,-56zm-69 118c46,0 27,-2 44,-37l56 0 7 37 37 0 -58 -168 -30 -1c-9,39 -44,117 -56,169z"/>
   <path class="fil1" d="M2961 1172l-50 0 0 -50 50 0c4,17 6,12 6,25 0,1 -6,25 -6,25zm-81 87l31 0 0 -62c18,1 52,18 73,-9 12,-16 43,-98 -61,-98l-43 0 0 169z"/>
   <path class="fil0" d="M1347 459c35,0 41,-2 57,19 -45,0 -48,-11 -57,25l57 0c-8,28 -13,25 -50,25 0,32 29,79 46,103 16,21 8,15 41,15 -17,-32 -51,-77 -56,-100 27,-2 41,-16 44,-43 23,-3 22,-3 25,-32 -33,0 -18,6 -32,-12 28,-1 29,2 32,-25 -21,0 -43,-1 -64,-1 -40,0 -35,-6 -43,26z"/>
   <path class="fil0" d="M178 459c34,0 41,-2 56,19l-50 0 0 25 50 0c-18,66 -94,-31 -16,103 20,34 10,40 53,40 -9,-18 -15,-29 -26,-48 -12,-18 -25,-32 -30,-52 27,-2 42,-16 44,-43 22,-2 8,1 19,-6l12 -13c-13,-18 1,-12 -31,-13l0 -12c29,-3 21,-5 31,-25 -23,0 -47,-1 -69,-1 -37,1 -31,2 -43,26z"/>
   <path class="fil1" d="M2260 1103c-10,45 -10,111 0,156l101 0 0 -25 -75 0 0 -43 68 0 0 -25 -68 0 0 -44 75 0 0 -25c-57,0 -70,-9 -101,6z"/>
   <path class="fil1" d="M6839 1122c0,102 -10,131 13,137l93 0 0 -25c-75,0 -81,8 -81,-25 0,-28 44,-18 75,-18 -3,-31 0,-25 -75,-25 0,-53 -9,-44 81,-44l0 -25c-62,0 -106,-13 -106,25z"/>
   <path class="fil1" d="M6526 1178c0,60 21,77 52,81l67 0 0 -25c-66,0 -81,10 -86,-51 -6,-75 24,-61 86,-61l0 -25c-35,-3 -119,-36 -119,81z"/>
   <path class="fil1" d="M3743 1122l0 137 31 0 0 -68 69 0 0 -25 -69 0 0 -44 75 0 0 -25c-50,0 -106,-17 -106,25z"/>
   <path class="fil1" d="M1954 1109c0,119 -7,145 27,150l79 0 0 -25c-94,0 -75,25 -75,-144 -20,1 -31,-2 -31,19z"/>
   <path class="fil2" d="M891 853c0,37 -3,37 31,37 22,0 19,-12 19,-37l-25 -13 -25 13z"/>
   <path class="fil2" d="M709 872c0,33 50,33 50,0 0,-34 -50,-34 -50,0z"/>
   <polygon class="fil3" points="1541,659 1535,659 1540,666 "/>
   <polygon class="fil3" points="21,771 28,771 22,764 "/>
   <polygon class="fil3" points="1616,734 1613,721 "/>
   <path class="fil1" d="M7100 0c20,0 40,5 59,15 19,11 34,25 44,45 11,19 16,39 16,60 0,20 -5,40 -15,59 -11,19 -26,34 -45,44 -19,11 -38,16 -59,16 -21,0 -41,-5 -60,-16 -18,-10 -33,-25 -44,-44 -10,-19 -16,-39 -16,-59 0,-21 6,-41 16,-60 11,-20 26,-34 45,-45 19,-10 39,-15 59,-15zm0 20c-17,0 -33,4 -49,13 -16,8 -28,21 -37,37 -9,16 -14,32 -14,50 0,17 5,33 13,49 9,16 22,28 37,37 16,9 33,13 50,13 17,0 34,-4 50,-13 15,-9 28,-21 36,-37 9,-16 14,-32 14,-49 0,-18 -5,-34 -14,-50 -9,-16 -21,-29 -37,-37 -16,-9 -32,-13 -49,-13zm-52 165l0 -128 44 0c15,0 26,1 33,4 6,2 12,6 16,12 4,6 6,12 6,19 0,9 -4,17 -10,24 -7,7 -16,11 -27,12 4,2 8,4 11,7 5,5 11,13 19,25l15 25 -25 0 -11 -20c-9,-16 -16,-26 -22,-30 -4,-3 -9,-4 -17,-4l-12 0 0 54 -20 0zm20 -72l25 0c12,0 21,-2 25,-5 4,-4 7,-9 7,-14 0,-4 -1,-8 -4,-11 -2,-3 -5,-5 -8,-6 -4,-2 -11,-2 -21,-2l-24 0 0 38z"/>
  </g>
 </g>
</svg>
